<svg xmlns="http://www.w3.org/2000/svg" id="Learning_Online_Makes_Fun" x="0" y="0" enable-background="new 0 0 1600 1200" version="1.1" viewBox="0 0 1600 1200" xml:space="preserve"><switch><g><linearGradient id="SVGID_1_" x1="0" x2="0" y1="0" y2="-1" gradientUnits="userSpaceOnUse"><stop offset="0" stop-color="#1d59f4"/><stop offset=".618" stop-color="#2d65ee"/><stop offset=".629" stop-color="#3864f3"/><stop offset=".983" stop-color="#00ddfc"/></linearGradient><linearGradient id="SVGID_2_" x1="0" x2="0" y1="0" y2="-1" gradientUnits="userSpaceOnUse"><stop offset="0" stop-color="#060606"/><stop offset=".618"/><stop offset=".629"/><stop offset=".983"/></linearGradient><g id="Chair"><path fill="#fe7934" d="M1127.8,1045.9l9.7-318.5c0.9-24.3-18.6-44.4-42.8-44.4H787.6c-23.1,0-42,18.3-42.8,41.3l-9.8,313.6
					L1127.8,1045.9z"/><path fill="#fdd047" d="M1074.1,1045.9l9.7-318.5c0.9-24.3-18.6-44.4-42.8-44.4H733.9c-23.1,0-42,18.3-42.8,41.3l-9.8,321.6H1074.1
					z"/><path fill="#fff" d="M1076.4,1036.2l-4-0.1l9.6-312.2c0-35.1-32.8-38.7-35.1-39H895.6v-4h151.5l0.1,0c0.4,0,38.8,3.6,38.8,43
					L1076.4,1036.2z"/></g><g id="Man"><polygon fill="#ffb1df" points="876 753.3 780.6 753.3 784.5 699.6 785.3 688.8 789 639.1 790.2 622.3 860.2 622.3 862.3 639.6 862.3 639.7"/><path fill="#d35eaf" d="M862.3,639.6L862.3,639.6c-6.5,33.1-43,56.5-77.7,59.9l0.8-10.8l3.6-49.6L862.3,639.6z"/><path fill="#ffb1df" d="M773.2,539.9c0,0-37.2,129.1,23.6,134.5c22.6,2,60.1-10.4,73.5-53.2c0,0,44-28.2,15.8-40.7l-9-36.1
					L773.2,539.9z"/><path fill="#46105b" d="M869.2,599.8l-11.3,4.5l-4.5-42.9c0,0-92.6,33.9-112.9-6.8c-20.3-40.7,36.1-65.5,103.9-36.1
					c0,0,56.5,2.3,42.9,63.2C887.3,581.7,871.5,579.4,869.2,599.8z"/><path fill="#30a9fa" d="M876.2,708.4c0,0-42.4,50.9-96.1,0l-49.7,15.7c-39.1,12.4-70.3,42.1-84.6,80.6l-89.1,240.1l405.6-4.2
					l1.4-139.9l104.6-48.1l-42.9-80.5c-15.7-29.4-44.5-49.4-77.4-53.9L876.2,708.4z"/><path fill="#ffb1df" d="M1093.9,1022.2c-93.3,17-260.1-28.3-260.1-28.3c-3.4-1-6.5-2.3-9.4-3.7c-28.8-14-35.8-44.3-35.8-44.3
					c-17,14.1-22.6,8.5-22.6,8.5s23.9-29.2,38.2-36.2c0.5-0.2,0.9-0.4,1.3-0.6c14.1-5.7,36.7,14.1,36.7,14.1l141.3,8.5l-17.4-33.6
					l-3.4-6.6l95.9-42.8c2.6,4.3,5,8.5,7.3,12.5C1147.3,1011.5,1093.9,1022.2,1093.9,1022.2z"/><path fill="#d35eaf" d="M824.4,990.2c-28.8-14-35.8-44.3-35.8-44.3c-17,14.1-22.6,8.5-22.6,8.5s23.9-29.2,38.2-36.2L824.4,990.2z"/><rect width="5" height="130.9" x="999.1" y="876.3" fill="#d35eaf" transform="rotate(-87.625 1001.64 941.753) scale(.99996)"/><path fill="#fff" d="M792.2,641.6c5.5,3.7,17.2,8.9,28.9-3.3c1.1-1.1,0.2-3-1.4-2.8l-26.8,3.1
					C791.4,638.7,791,640.7,792.2,641.6z"/><polygon fill="#d35eaf" points="798.9 629.1 800 598.9 804 599.1 803.1 624.9 809.4 624.5 809.6 628.5"/><circle cx="779.4" cy="599.4" r="3.4" fill="#d35eaf"/><circle cx="824.6" cy="599.4" r="3.4" fill="#d35eaf"/><ellipse cx="779" cy="588.5" fill="#d35eaf" rx="3.5" ry="10" transform="rotate(-82.894 778.994 588.515)"/><ellipse cx="826" cy="586.5" fill="#d35eaf" rx="10" ry="3.5" transform="rotate(-6.832 825.704 586.258)"/><path fill="#fff" d="M998.7,742.6c-33.2-26.8-113.8-32-123-32.5c-18.3,17.4-36.7,25.4-54.8,23.8c-26.2-2.3-41.9-23.7-42.5-24.6
					l3.2-2.3c0.2,0.2,15.4,20.8,39.7,23c17.1,1.5,34.7-6.3,52.3-23.3l0.6-0.6l0.9,0c3.7,0.2,90.1,4.4,126.2,33.4L998.7,742.6z"/><path fill="#d35eaf" d="M1066.2,869.8l-99.9,36.8l-3.4-6.6l95.9-42.8C1061.4,861.5,1063.8,865.7,1066.2,869.8z"/><rect width="4" height="90.5" x="949.3" y="836.6" fill="#fff" transform="rotate(-30.144 951.194 881.796)"/></g><g id="Line"><polygon fill="#30a9fa" points="336 753 330 753 330 647 472 647 472 409 732 409 732 334 738 334 738 415 478 415 478 653 336 653"/><polygon fill="#30a9fa" points="512 867 330 867 330 798 336 798 336 861 512 861"/><circle cx="332.5" cy="794.5" r="11.5" fill="#fdd047"/><circle cx="735.5" cy="329.5" r="11.5" fill="#fdd047"/><circle cx="332.5" cy="753.5" r="11.5" fill="#13e0cf"/><polygon fill="#30a9fa" points="738 299 732 299 732 261.8 834 261.8 834 267.8 738 267.8"/><circle cx="735.5" cy="299.5" r="11.5" fill="#13e0cf"/><polygon fill="#30a9fa" points="1257 489 1251 489 1251 311 1105.2 311 1105.2 305 1257 305"/></g><g id="Video"><path fill="#13e0cf" d="M272.9,324h367.1c6,0,10.9,4.9,10.9,10.9v246c0,6-4.9,10.9-10.9,10.9H272.9c-6,0-10.9-4.9-10.9-10.9v-246
					C262,328.9,266.9,324,272.9,324z"/><rect width="366.5" height="212.7" x="273.6" y="365.5" fill="#fff"/><rect width="224.1" height="148" x="284.8" y="375.5" fill="#79f4e9"/><polygon fill="#fff" points="385.3 427.4 385.3 472.9 415.9 449.8"/><path fill="#fff" d="M395.3 494.5c-24.3 0-44-19.7-44-44s19.7-44 44-44 44 19.7 44 44S419.6 494.5 395.3 494.5zM395.3 415.8c-19.1 0-34.7 15.5-34.7 34.7s15.5 34.7 34.7 34.7c19.1 0 34.7-15.5 34.7-34.7S414.4 415.8 395.3 415.8zM284.8 345.6L284.8 345.6c0 4.5 3.6 8.1 8.1 8.1h133.6c4.5 0 8.1-3.6 8.1-8.1v0c0-4.5-3.6-8.1-8.1-8.1H292.9C288.4 337.4 284.8 341.1 284.8 345.6z"/><rect width="111.8" height="191.1" x="518.9" y="375.5" fill="#79f4e9"/><path fill="#fff" d="M532.7 393.9L532.7 393.9c0 2.2 1.8 4.1 4.1 4.1h22.5c2.2 0 4.1-1.8 4.1-4.1l0 0c0-2.2-1.8-4.1-4.1-4.1h-22.5C534.5 389.9 532.7 391.7 532.7 393.9zM532.7 422.7L532.7 422.7c0 2.2 1.8 4.1 4.1 4.1h45.9c2.2 0 4.1-1.8 4.1-4.1l0 0c0-2.2-1.8-4.1-4.1-4.1h-45.9C534.5 418.6 532.7 420.4 532.7 422.7zM532.7 408.3L532.7 408.3c0 2.2 1.8 4.1 4.1 4.1h59.6c2.2 0 4.1-1.8 4.1-4.1l0 0c0-2.2-1.8-4.1-4.1-4.1h-59.6C534.5 404.2 532.7 406.1 532.7 408.3zM532.7 463.9L532.7 463.9c0 2.2 1.8 4.1 4.1 4.1h59.6c2.2 0 4.1-1.8 4.1-4.1l0 0c0-2.2-1.8-4.1-4.1-4.1h-59.6C534.5 459.8 532.7 461.6 532.7 463.9zM532.7 478.9L532.7 478.9c0 2.2 1.8 4.1 4.1 4.1h59.6c2.2 0 4.1-1.8 4.1-4.1l0 0c0-2.2-1.8-4.1-4.1-4.1h-59.6C534.5 474.8 532.7 476.6 532.7 478.9zM532.7 493.8L532.7 493.8c0 2.2 1.8 4.1 4.1 4.1H577c2.2 0 4.1-1.8 4.1-4.1l0 0c0-2.2-1.8-4.1-4.1-4.1h-40.3C534.5 489.8 532.7 491.6 532.7 493.8zM532.7 443.9L532.7 443.9c0 1.2 1 2.2 2.2 2.2h80.5c1.2 0 2.2-1 2.2-2.2l0 0c0-1.2-1-2.2-2.2-2.2h-80.5C533.6 441.7 532.7 442.7 532.7 443.9zM532.7 512.6L532.7 512.6c0 1.2 1 2.2 2.2 2.2h80.5c1.2 0 2.2-1 2.2-2.2l0 0c0-1.2-1-2.2-2.2-2.2h-80.5C533.6 510.4 532.7 511.4 532.7 512.6z"/><circle cx="582.9" cy="346.5" r="6.6" fill="#fff"/><circle cx="604.8" cy="346.5" r="6.6" fill="#fff"/><circle cx="627.3" cy="346.5" r="6.6" fill="#fff"/></g><g id="Table"><polygon fill="#d3d3d3" points="1379 1013.8 309.5 1070.5 185 1082.6 185 1111 1292.5 1111 1300 1111 1379 1042.2"/><polygon fill="#e6e6e6" points="309.5 1014 1379 1014 1292.5 1082.6 185 1082.6"/><polygon fill="#fff" points="1292.9 1085.5 185 1085.5 185 1080.5 1291.1 1080.5 1377.4 1012 1380.6 1016"/></g><g id="Paper"><polygon fill="#b655ff" points="1350 543.1 1350 744.4 1156 744.4 1156 489 1298.6 489 1299.9 490.4"/><polygon fill="#d3d3d3" points="1350 543.1 1350 543.6 1299.9 543.6 1299.9 490.4"/><path fill="#fff" d="M1197.6,584l-2.6,9.2h-8.4l10.9-35.8h10.6l11.1,35.8h-8.7l-2.8-9.2H1197.6z M1206.7,578l-2.2-7.6
						c-0.6-2.1-1.3-4.8-1.8-6.9h-0.1c-0.5,2.1-1.1,4.8-1.6,6.9l-2.1,7.6H1206.7z"/><rect width="132.6" height="10.7" x="1186.7" y="605.4" fill="#fff"/><rect width="132.6" height="10.7" x="1186.7" y="626.9" fill="#d793ff"/><rect width="132.6" height="10.7" x="1186.7" y="648.4" fill="#d793ff"/><rect width="132.6" height="10.7" x="1186.7" y="669.8" fill="#d793ff"/><rect width="85.5" height="10.7" x="1186.7" y="691.3" fill="#d793ff"/></g><g id="Glass"><path fill="#fffffd" d="M1025,955c0-9.2-19.4-14.2-37.7-14.2c-18.3,0-37.7,5-37.7,14.2c0,0.5,0.1,1,0.2,1.4l-0.3,0l6.8,115.8
				l0.1,1.3l1.3,0.4c0.5,0.2,13.2,4.5,29.5,4.5c18.3,0,29.1-4.3,29.6-4.5l1.2-0.5l6.9-117.1l0,0C1024.9,956,1025,955.5,1025,955z
				 M987.3,944.8c20.9,0,33.7,6,33.7,10.2c0,4.3-12.8,10.2-33.7,10.2c-20.9,0-33.7-6-33.7-10.2C953.6,950.7,966.4,944.8,987.3,944.8
				z M1014.1,1070.7c-3.2,1.1-12.8,3.8-26.9,3.8c-12.7,0-23.4-2.8-26.9-3.9l-6.4-108.8c6.7,4.9,20.4,7.4,33.5,7.4
				c12.9,0,26.4-2.5,33.2-7.2L1014.1,1070.7z"/><path fill="#30a9fa" d="M961.6,987.4h50.5l-5.3,77.4c0,0-3.7,4.2-19.5,4.2c-16.8,0-20.5-4.2-20.5-4.2L961.6,987.4z"/><ellipse cx="986.9" cy="987" fill="#fff" rx="25.3" ry="5.7"/></g><g id="Books"><path fill="#b655ff" d="M1103.1,1022.9c-4.5,5-13.6,18.7,0.9,34.9c1.5,1.7,3.7,2.8,6,3.1l145.5,17.7l81.8-80.5l-12.5,0.5l-1.4-17
					l9.4-8l0.2-6l-59.2,2.1l-166.4,50.3C1105.8,1020.6,1104.3,1021.6,1103.1,1022.9z"/><path fill="#fff" d="M1327.2,998.3l-75,68.7l-143.2-13.1c-2-3-3.2-5.8-3.9-8.3c-0.3-1.1-0.5-2.1-0.6-3.1
						c-0.8-7.8,3.6-12.5,3.6-12.5l148.1,12.3l70.1-63.3l0.4,8.8l0.2,3.9L1327.2,998.3z"/><rect width="3" height="145.5" x="1175.6" y="968.8" fill="#e6e6e6" transform="matrix(.09246 -.9957 .9957 .09246 31.12 2117.296)"/><path fill="#feb5bc" d="M1091.3,978.8c-5,5.4-14.1,19.3-0.1,39.9c1.3,1.9,3.1,3.2,5.2,3.9l76,23.2l148.8-52.3l-0.3-9.1l-9.3,2.9
					l-0.5-21.6l9-2.3l-0.2-6.4l-85.5-1.3L1097,975.8C1094.8,976.2,1092.8,977.2,1091.3,978.8z"/><path fill="#fff" d="M1314.6,986.2l-140.8,49.4l-78.4-21.6c-0.3-0.4-0.5-0.8-0.8-1.1c-2.1-3.3-3.3-6.5-3.8-9.5
					c-0.2-1.1-0.3-2.2-0.4-3.2c-0.1-2.5,0.2-4.7,0.6-6.7c0.1-0.4,0.2-0.8,0.3-1.2l0-0.2c1.2-4.3,2.9-7,2.9-7l78.9,27.4l139-47.1
					l0.5,4.4l0.3,3l0.6,5.1l0.3,3.1l0.4,3.9v0L1314.6,986.2z"/><path fill="#30a9fa" d="M1103.3,933.6c-2.9,6.6-7,19.9,0.8,32.2c1.5,2.3,3.8,3.9,6.5,4.5l96,19.9l115.5-47.5l-0.2-5.6l-15.1,1.3
					l-1.5-21.8l15.6-5.4l-0.2-5.2L1208,895.8l-98.6,32.2C1106.7,929,1104.4,930.9,1103.3,933.6z"/><path fill="#fff" d="M1312.9,938.6l-107.4,42l-96.1-18c-1.2-1.8-1.9-3.7-2.4-5.6c-0.3-1.1-0.5-2.1-0.6-3.2
					c-0.2-1.7-0.2-3.4-0.1-5c0-0.5,0.1-1.1,0.1-1.6l0-0.1c0.3-2.5,0.8-4.8,1.3-6.3c0.5-1.5,0.9-2.5,0.9-2.5l97.6,18.3L1312,914
					l0.1,2.4l0.2,5.8l0.1,3.2l0.2,6.4l0.1,3.2L1312.9,938.6z"/><path fill="#e6e6e6" d="M1312.1,916.3l-105.9,43l-0.4-0.1l-98-18.4c0.5-1.5,0.9-2.5,0.9-2.5l97.6,18.3L1312,914L1312.1,916.3z"/><polygon fill="#e6e6e6" points="1312.4 925.3 1205.2 967.4 1204.7 967.3 1106.3 948.8 1106.1 948.8 1106.4 947.2 1106.4 947.2 1106.7 945.8 1204.8 964.3 1312.3 922.1"/><path fill="#e6e6e6" d="M1312.7 934.9l-106.6 41.5-.4-.1L1107 957c-.3-1.1-.5-2.1-.6-3.2l99.5 19.4 106.8-41.6L1312.7 934.9zM1314.6 986.2l-140.8 49.4-78.4-21.6c-.3-.4-.5-.8-.8-1.1l.3-1 78.5 21.9 141-48.9L1314.6 986.2z"/><path fill="#e6e6e6" d="M1314,980.9l-140.5,47l-82.7-24.5c-0.2-1.1-0.3-2.2-0.4-3.2l83,24.7l140.2-46.9L1314,980.9z"/><polygon fill="#e6e6e6" points="1313.1 972.7 1173.5 1018.9 1173.1 1018.7 1091.1 993.3 1091 993.3 1091.3 992.2 1091.4 992 1091.9 990.4 1173.5 1015.7 1312.7 969.6"/><polygon fill="#e6e6e6" points="1253 1068.9 1108.3 1053.8 1108.7 1050.8 1252 1065.7 1326.5 998.2 1328.5 1000.4"/><path fill="#e6e6e6" d="M1326.8,991.7l-74.8,67.2l-0.7,0l-146.3-13.2c-0.3-1.1-0.5-2.1-0.6-3.1l146.5,13.3l75.7-67.9
						L1326.8,991.7z"/></g><g id="Chat"><path fill="#0879f9" d="M1105.2,272.1v73.5c0,8.6-7,15.6-15.7,15.6h-12.7l6.7,18.3c1.6,4.3-3,8.2-7,6.1l-45.7-24.4H952
					c-8.7,0-15.7-7-15.7-15.6v-73.5c0-8.7,7-15.7,15.7-15.7h137.6C1098.2,256.5,1105.2,263.5,1105.2,272.1z"/><path fill="#30a9fa" d="M1003.3,212h-152c-9.6,0-17.3,7.7-17.3,17.3v81.2c0,9.6,7.7,17.3,17.3,17.3h14.1L858,348
					c-1.7,4.7,3.3,9.1,7.7,6.7l50.5-26.9h87.1c9.6,0,17.3-7.7,17.3-17.3v-81.2C1020.6,219.7,1012.8,212,1003.3,212z" opacity=".81"/><rect width="16.5" height="6" x="1093.8" y="234" fill="#30a9fa" transform="rotate(-75.965 1102.035 237.022)"/><rect width="16.5" height="6" x="1106.8" y="244" fill="#30a9fa" transform="rotate(-35.551 1114.93 247.034)"/><rect width="6" height="16.5" x="1118" y="255.8" fill="#30a9fa" transform="matrix(.09942 -.995 .995 .09942 746.856 1353.199)"/></g><g id="Pencil_case"><ellipse cx="346.2" cy="972.6" fill="#fe7934" rx="39.8" ry="13.6"/><polygon fill="#30a9fa" points="328.4 897.7 355.4 1056.3 333.7 1059.9 306.7 901.3 306.8 901.3 310.5 886.9 313.3 876.2 319.7 885.4 326.5 894.9 328.4 897.6"/><polygon fill="#0879f9" points="328.4 897.7 355.4 1056.3 348.9 1057.4 321.4 895.4 326.5 894.9 328.4 897.6"/><polygon fill="#d1aa81" points="328.4 897.6 322.7 901.9 317.3 899 312.5 903.7 306.8 901.3 310.5 886.9 313.3 876.2 319.7 885.4"/><path fill="#f4a5b0" d="M334.3,1058.3l1.6,9.3c0.3,1.8,2,3,3.8,2.7l13.4-2.3c1.8-0.3,3-2,2.7-3.8l-1.6-9.3L334.3,1058.3z"/><polygon fill="#1b1a1b" points="319.7 885.4 310.5 886.9 313.3 876.2"/><rect width="22" height="16.7" x="332.1" y="1041.5" fill="#a5a6aa" transform="rotate(-9.642 343.13 1049.883)"/><g><polygon fill="#30a9fa" points="331.2 1050.9 353.1 928 369.9 931 348 1053.9 348 1054 341.5 1063.5 336.7 1070.6 334.3 1062.2 331.9 1053.5 331.2 1051"/><polygon fill="#0879f9" points="331.2 1050.9 353.1 928 358.1 928.9 335.7 1054.4 331.9 1053.5 331.2 1051"/><polygon fill="#d1aa81" points="331.2 1051 336.5 1049.3 339.7 1052.8 344.4 1050.7 348 1054 341.5 1063.5 336.7 1070.6 334.3 1062.2"/><path fill="#f4a5b0" d="M369.1,932.1l1.3-7.2c0.2-1.4-0.7-2.7-2.1-3l-10.4-1.9c-1.4-0.2-2.7,0.7-3,2.1l-1.3,7.2L369.1,932.1z"/><polygon fill="#1b1a1b" points="334.3 1062.2 341.5 1063.5 336.7 1070.6"/><rect width="12.9" height="17.1" x="353.9" y="927.4" fill="#a5a6aa" transform="rotate(-79.892 360.43 935.903)"/></g><g><path fill="#fdd047" d="M306.3,970.8l7.2,91.1c0.2,4.2,3.2,7.7,7.3,8.7c5.8,1.4,14.9,3,25.3,3c11.2,0,19.8-1.5,25.3-2.8
					c4-1,7-4.5,7.2-8.6l7.2-91.3c0,0,0.1,15.2-39.8,15.2C306,986,306.3,970.8,306.3,970.8z"/></g><g><path fill="#fff" d="M381,1062.2l-4-0.3l6.6-84.3c-13.4,10.9-29.5,10.6-37.7,10.5c-38.2-0.7-41.8-15.9-41.9-16.6l3.9-0.8
					c0,0.1,3.5,12.8,38.1,13.4c8.3,0.1,25.7,0.5,38.5-12.8l3.9-4L381,1062.2z"/></g></g><g id="Laptop"><polygon fill="#0879f9" points="474.8 1012.7 927.1 1012.7 827.3 1055.1 489 1049.5"/><path fill="#c1e1fb" d="M443,831.8h311.5c8.4,0,15.8,5.6,18.1,13.8l51.7,185.7c3.3,12-5.7,23.8-18.1,23.8H494.8
					c-8.4,0-15.8-5.6-18.1-13.8l-51.7-185.7C421.6,843.7,430.6,831.8,443,831.8z"/><polygon fill="#82c5f8" points="927.1 1012.7 927.1 1027.7 824.3 1068.4 480.5 1066.4 480.5 1043.8 820.8 1046.6"/><ellipse cx="610" cy="942" fill="#fff" rx="19" ry="22" transform="rotate(-15.083 610.076 942.1)"/><path fill="#fff" d="M822.6,1035.8l-49.9-187.7c-2.2-8.1-9.5-13.8-17.9-13.8h-198v-5h198c10.7,0,20,7.2,22.8,17.5l49.9,187.7
					L822.6,1035.8z"/><polygon fill="#fff" points="823.4 1049.5 823 1049.5 480 1046.5 480 1041.5 822.6 1044.5 926.2 1010.6 927.8 1015.4"/></g><line id="Florr" x1="116" x2="1485.7" y1="1113" y2="1113" fill="none" stroke="#0f0a46" stroke-miterlimit="10" stroke-width="3"/></g></switch></svg>